<svg width="21.08" height="20" id="Layer_1" xmlns="http://www.w3.org/2000/svg" viewBox="0 0 289.83 282.96"><defs><style>.cls-1{fill:#333f48;}</style></defs><polygon class="cls-1" points="209.44 143.78 251.12 143.78 289.83 105.09 213.79 105.09 285.5 0 148.88 126.11 221.83 126.11 209.44 143.78"/><polygon class="cls-1" points="161.42 212.27 111.87 282.96 182.59 212.27 161.42 212.27"/><path class="cls-1" d="m0,154.83h35.33v9.28H10.21v9.88h22.14v9.28H10.21v17.96H0v-46.4Z"/><path class="cls-1" d="m52.62,154.5h9.41l19.88,46.73h-10.67l-4.24-10.41h-19.62l-4.24,10.41h-10.41l19.88-46.73Zm10.74,27.31l-6.17-15.05-6.16,15.05h12.33Z"/><path class="cls-1" d="m86.44,154.83h11l12.2,19.62,12.2-19.62h11v46.4h-10.14v-30.29l-13.06,19.82h-.27l-12.93-19.62v30.09h-10.01v-46.4Z"/><path class="cls-1" d="m144.84,154.83h10.21v46.4h-10.21v-46.4Z"/><path class="cls-1" d="m166.65,154.83h10.21v37.12h23.13v9.28h-33.34v-46.4Z"/><path class="cls-1" d="m212.12,182.93l-17.83-28.1h11.93l11.07,18.63,11.27-18.63h11.6l-17.83,27.91v18.49h-10.21v-18.29Z"/><path class="cls-1" d="m0,108.25h10.07v5.04c2.32-2.98,5.3-5.7,10.41-5.7,7.62,0,12.06,5.04,12.06,13.19v23h-10.07v-19.82c0-4.77-2.25-7.22-6.1-7.22s-6.3,2.45-6.3,7.22v19.82H0v-35.53Z"/><path class="cls-1" d="m42.26,97.38h18.96c11.07,0,17.76,6.56,17.76,16.04v.13c0,10.74-8.35,16.31-18.76,16.31h-7.75v13.92h-10.21v-46.4Zm18.29,23.4c5.1,0,8.09-3.05,8.09-7.03v-.13c0-4.57-3.18-7.03-8.29-7.03h-7.89v14.18h8.09Z"/><path class="cls-1" d="m86.47,97.38h11l12.2,19.62,12.2-19.62h11v46.4h-10.14v-30.29l-13.06,19.82h-.27l-12.93-19.62v30.09h-10.01v-46.4Z"/></svg>