<svg xmlns="http://www.w3.org/2000/svg" width="28.03" height="20.02" viewBox="0 0 28.03 20.02"><defs><style>.a{fill:#607d8b;}</style></defs><g transform="translate(-129.98 -269.5)"><path class="a" d="M129.99,283.39c1.37,0,2.74.01,4.12.01h.37c.06.27.11.52.18.77a1.769,1.769,0,0,0,3.45-.14,6.3,6.3,0,0,0-.04-2.8,1.574,1.574,0,0,0-1.54-1.34,1.72,1.72,0,0,0-1.87,1.07.456.456,0,0,1-.52.33c-1.14-.02-2.28-.01-3.42,0-.24,0-.34-.05-.34-.32q.015-3.165,0-6.33c0-.26.08-.33.33-.33,1.15.01,2.3.01,3.44,0,.23,0,.31.06.3.3-.02.74-.01,1.47-.01,2.2a11.134,11.134,0,0,1,1.39-.51,5.26,5.26,0,0,1,6.66,4.16,10.409,10.409,0,0,1-.01,4.58,5.561,5.561,0,0,1-4.33,4.29c-.28.07-.56.12-.84.19h-1.9c-.27-.06-.54-.11-.81-.18a5.433,5.433,0,0,1-4.45-4.69c-.07-.39-.11-.79-.17-1.18A.283.283,0,0,0,129.99,283.39Z"/><path class="a" d="M149.55,289.5c-.37-.08-.75-.14-1.11-.24A5.493,5.493,0,0,1,144.5,286a6.811,6.811,0,0,1-.47-2.57,2.18,2.18,0,0,1,.24-.01h3.98c.17,0,.27.02.29.23a1.911,1.911,0,0,0,2.35,1.81,1.787,1.787,0,0,0,1.66-1.8,2.914,2.914,0,0,0-.19-1.37,2.068,2.068,0,0,0-2.02-1.4q-1.08-.015-2.16,0c-.27.01-.34-.1-.34-.34v-2.8a.461.461,0,0,1,.11-.27q1.83-2.16,3.66-4.31a.373.373,0,0,1,.26-.12c1.8-.01,3.6-.01,5.48-.01-1.43,1.69-2.82,3.33-4.22,4.99.35.16.66.3.97.45a4.724,4.724,0,0,1,2.62,3.04,6.048,6.048,0,0,1-.88,5.73,5.8,5.8,0,0,1-3.71,2.11c-.21.04-.42.08-.63.13C150.85,289.5,150.2,289.5,149.55,289.5Z"/><path class="a" d="M158.01,271.91a1.444,1.444,0,0,1-2.23.09c.12-.14.23-.28.3-.37.34.1.62.21.91.27.16.03.38-.02.38-.22,0-.11-.16-.25-.29-.31a6.173,6.173,0,0,0-.61-.19.755.755,0,0,1-.6-.83.858.858,0,0,1,.71-.79l.24-.06h.11a1.788,1.788,0,0,1,1,.42c-.11.15-.21.3-.28.39a6.555,6.555,0,0,0-.87-.19.317.317,0,0,0-.25.2c-.02.08.09.21.18.26a1.485,1.485,0,0,0,.42.14,1.443,1.443,0,0,1,.86.51C158.01,271.46,158.01,271.68,158.01,271.91Z"/><path class="a" d="M137.58,273.67c-.35,0-.66.01-.96-.01-.07,0-.14-.08-.19-.14a4.3,4.3,0,0,1-.48-.72c-.2-.44-.53-.49-.97-.39v1.23h-.89v-4.07c.8.03,1.61.02,2.4.11a1.127,1.127,0,0,1,.95,1.01,1.313,1.313,0,0,1-.59,1.4c-.07.04-.14.08-.24.13C136.92,272.71,137.24,273.17,137.58,273.67Zm-2.59-2.1c.35,0,.67.01.99,0a.564.564,0,0,0,.56-.55.524.524,0,0,0-.54-.56c-.33-.02-.67,0-1.02,0C134.99,270.81,134.99,271.17,134.99,271.57Z"/><path class="a" d="M138.25,269.62h3.07v.83h-2.15v.83h1.89v.81h-1.89v1.55h-.92C138.25,272.31,138.25,270.98,138.25,269.62Z"/><path class="a" d="M133.2,273.66h-.86v-1.49a2.966,2.966,0,0,0-.03-.42.47.47,0,0,0-.53-.43.476.476,0,0,0-.5.47c-.03.54-.02,1.08-.03,1.62,0,.07-.01.15-.01.24h-.85v-3.07h.84c.02.1.03.2.06.35a1.2,1.2,0,0,1,.91-.43.932.932,0,0,1,1,.89C133.23,272.14,133.2,272.89,133.2,273.66Z"/><path class="a" d="M151.19,271.43c.21.32.42.63.63.94a.684.684,0,0,1-.95-.31,1.534,1.534,0,0,1-.14-.21.49.49,0,0,0-.68-.3v.85h-.62v-2.78c.55,0,1.1-.04,1.64.01a.783.783,0,0,1,.69.74.919.919,0,0,1-.4.95C151.31,271.36,151.25,271.39,151.19,271.43Zm-1.13-1.26v.78c.24,0,.47.02.69,0a.39.39,0,0,0-.01-.78C150.53,270.16,150.3,270.17,150.06,270.17Z"/><path class="a" d="M146.87,269.6h2.1v.56h-1.48v.57h1.3v.55h-1.3v.57h1.48v.56h-2.11C146.87,271.47,146.87,270.54,146.87,269.6Z"/><path class="a" d="M155.53,269.61v.55h-1.49v.56h1.3v.57h-1.3v.57h1.49v.55h-2.11v-2.79C154.12,269.61,154.81,269.61,155.53,269.61Z"/><path class="a" d="M146.37,269.91c-.11.16-.21.3-.32.46a2.015,2.015,0,0,0-.25-.13,2.943,2.943,0,0,0-.59-.12.355.355,0,0,0-.24.21c-.02.06.09.2.17.24a5.991,5.991,0,0,0,.64.21c.5.16.71.44.68.86a.873.873,0,0,1-.83.81,1.757,1.757,0,0,1-1.42-.46c.11-.14.23-.28.34-.42.18.09.35.19.52.27a.817.817,0,0,0,.27.06c.19.01.41.02.45-.22s-.18-.27-.34-.33c-.18-.06-.38-.1-.56-.17a.744.744,0,0,1-.59-.78.8.8,0,0,1,.65-.8A1.562,1.562,0,0,1,146.37,269.91Z"/><path class="a" d="M152.83,269.61v2.8h-.6v-2.8Z"/></g></svg>
