<svg xmlns="http://www.w3.org/2000/svg" width="28.03" height="20.02" viewBox="0 0 100.01 71.16">
      <polygon points="83.15 21.47 66.11 45.52 83.15 45.52 83.15 59.14 50.11 59.14 50.11 47.18 83.15 .74 83.15 21.47"/>
      <path d="M15.92,16.61v9.26c1.38-1.08,5.12-2.75,9.44-2.75,6.1,0,10.72,2.06,13.57,4.92,5.7,5.7,6.49,12,6.49,18.59,0,8.46-1.28,13.28-6.49,18.49-3.05,3.05-8.36,6-16.23,6s-13.57-3.05-16.62-6.1C1.08,60,.39,54.29,0,49.18h16.12c.49,4.62,2.46,7.38,6.59,7.38,1.97,0,3.25-.49,4.53-1.77,1.47-1.47,2.06-4.03,2.06-8.16,0-7.77-2.65-9.93-6.59-9.93-4.72,0-5.9,3.15-6.59,5.02H1.27v-25.07"/>
      <g>
        <path d="M1.32,3.43h3.17v1.59c.73-.94,1.67-1.79,3.27-1.79,2.4,0,3.79,1.58,3.79,4.14v7.23h-3.16v-6.23c0-1.5-.71-2.27-1.92-2.27s-1.98.77-1.98,2.27v6.23H1.32V3.44h0Z"/>
        <path d="M14.63.01h6.67c1.85,0,3.29.52,4.25,1.48.81.81,1.25,1.96,1.25,3.33v.04c0,2.35-1.27,3.83-3.12,4.52l3.56,5.21h-3.75l-3.12-4.66h-2.52v4.66h-3.21V.01h0ZM21.09,7.09c1.56,0,2.46-.83,2.46-2.06v-.04c0-1.37-.96-2.08-2.52-2.08h-3.19v4.19h3.25Z"/>
        <path d="M29.7.01h11.1v2.92h-7.89v3.1h6.95v2.91h-6.95v5.64h-3.21V0h0Z"/>
      </g>
      <g>
        <path d="M97.6,71.16l-2.27-1.89c1.08-1.31,1.77-2.68,1.77-4.34,0-1.31-.52-2.1-1.37-2.1h-.04c-.81,0-1.23.5-1.85,2.93-.75,2.93-1.55,4.82-4.45,4.82h-.04c-2.64,0-4.39-2.12-4.39-5.09,0-2.12.67-3.93,1.85-5.4l2.41,1.66c-.89,1.29-1.43,2.56-1.43,3.78s.56,1.87,1.27,1.87h.04c.96,0,1.27-.62,1.92-3.14.77-2.95,1.83-4.62,4.36-4.62h.04c2.89,0,4.51,2.2,4.51,5.34,0,2.2-.77,4.42-2.33,6.17h0Z"/>
        <path d="M85.17,57.59v-10.97h2.85v7.79h2.95v-6.86h2.85v6.86h3.05v-7.9h2.85v11.08s-14.55,0-14.55,0Z"/>
        <path d="M85.17,44.38v-6.65c0-1.85.52-3.28,1.48-4.24.81-.81,1.95-1.25,3.33-1.25h.04c2.35,0,3.82,1.27,4.51,3.12l5.2-3.55v3.74l-4.65,3.12v2.51h4.65v3.2h-14.56ZM92.24,37.94c0-1.56-.83-2.45-2.06-2.45h-.04c-1.37,0-2.08.96-2.08,2.51v3.18h4.18s0-3.24,0-3.24Z"/>
        <path d="M85.17,29.94v-3.2h14.55v3.2h-14.55Z"/>
        <path d="M85.17,23.83v-10.97h2.85v7.79h2.95v-6.86h2.85v6.86h3.05v-7.9h2.85v11.08s-14.55,0-14.55,0Z"/>
        <path d="M97.65,11.63l-2.29-1.91c1.09-1.32,1.78-2.7,1.78-4.38,0-1.32-.53-2.12-1.38-2.12h-.04c-.82,0-1.24.5-1.87,2.96-.75,2.95-1.57,4.86-4.48,4.86h-.04c-2.66,0-4.42-2.14-4.42-5.14,0-2.14.67-3.96,1.87-5.45l2.43,1.68c-.9,1.3-1.44,2.58-1.44,3.82s.56,1.89,1.28,1.89h.04c.97,0,1.28-.63,1.93-3.16.77-2.98,1.84-4.65,4.4-4.65h.04c2.91,0,4.55,2.22,4.55,5.39,0,2.22-.77,4.46-2.35,6.23v-.02Z"/>
      </g>
</svg>
