<svg xmlns="http://www.w3.org/2000/svg" width="21.08" height="20" viewBox="0 0 21.08 20"><defs><style>.a{fill:#00a9ce;}</style></defs><g transform="translate(-0.06)"><path class="a" d="M12.74,12.92v.42a1.92,1.92,0,0,0,0,.24v.6c0,.18-.05.52-.08.78a7.66,7.66,0,0,1-.21.95,2.29,2.29,0,0,1-.08.28.12.12,0,0,1,0,.1,5.16,5.16,0,0,1-1,1.59c-.18.2-.36.39-.55.57a5.19,5.19,0,0,1-1,.71,5.77,5.77,0,0,1-1.22.53A7.52,7.52,0,0,1,7.49,20H6a6.68,6.68,0,0,1-1.72-.25,6.52,6.52,0,0,1-1.21-.45A5.71,5.71,0,0,1,2,18.56,5.38,5.38,0,0,1,.29,15.9a8.46,8.46,0,0,1-.23-1.22c0-.22,0-.43,0-.65a.31.31,0,0,0,0-.1v-.08a.07.07,0,0,1,.06,0H4.44c.1,0,.11,0,.12.1a3.73,3.73,0,0,0,.23.93,1.74,1.74,0,0,0,.54.72,1.58,1.58,0,0,0,.79.29,2.28,2.28,0,0,0,.78,0,1.52,1.52,0,0,0,.6-.32,1.61,1.61,0,0,0,.5-.94,4.46,4.46,0,0,0,.14-.89,7.54,7.54,0,0,0,0-.82A5,5,0,0,0,8,11.49a1.83,1.83,0,0,0-.37-.65A1.34,1.34,0,0,0,7,10.45a2.32,2.32,0,0,0-.83-.06,1.71,1.71,0,0,0-.63.15,1.59,1.59,0,0,0-.62.53,2.69,2.69,0,0,0-.31.61.14.14,0,0,1,0,.06.07.07,0,0,1-.07,0h-4c-.16,0-.16,0-.16-.15V4.85c0-.15,0-.15.16-.15H4.42V7.26h0a4.41,4.41,0,0,1,1.63-.64,5.51,5.51,0,0,1,.71-.09h.48a6.36,6.36,0,0,1,1.89.33,5,5,0,0,1,1.32.71,4.3,4.3,0,0,1,.65.63,5.73,5.73,0,0,1,.57.73,6,6,0,0,1,.71,1.62,8.05,8.05,0,0,1,.18,1,2.425,2.425,0,0,0,.06.65,1.023,1.023,0,0,1,0,.43v.24C12.62,12.95,12.73,12.9,12.74,12.92Z"/><path class="a" d="M20.32,1.4a.62.62,0,0,0-.15-.4.34.34,0,0,0-.53.07,2.92,2.92,0,0,0-.19.49,5.29,5.29,0,0,1-.24.8,1.19,1.19,0,0,1-.46.6,1.28,1.28,0,0,1-.39.13H18A1.34,1.34,0,0,1,17.55,3a1.32,1.32,0,0,1-.44-.44A1.67,1.67,0,0,1,16.92,2a1.78,1.78,0,0,1,0-.46A2.09,2.09,0,0,1,17,.84a2.46,2.46,0,0,1,.36-.68h.07l.61.42V.64a2.26,2.26,0,0,0-.34.74.91.91,0,0,0,0,.61.34.34,0,0,0,.43.2A.35.35,0,0,0,18.37,2a2.07,2.07,0,0,0,.18-.47,5.16,5.16,0,0,1,.24-.79,1.47,1.47,0,0,1,.36-.53A1,1,0,0,1,19.69,0H20a1.77,1.77,0,0,0,.2,0,1.13,1.13,0,0,1,.8.75,1.92,1.92,0,0,1,.14.62v.29a2.89,2.89,0,0,1-.29,1.07,2.44,2.44,0,0,1-.35.51h-.06L20.14,3l-.21-.18a.27.27,0,0,0-.08-.07V2.69a2.19,2.19,0,0,0,.23-.33,1.88,1.88,0,0,0,.22-.57,1.23,1.23,0,0,0,0-.19A.67.67,0,0,0,20.32,1.4Z"/><path class="a" d="M13.84,2.29a1.84,1.84,0,0,1,.25-.23,1.9,1.9,0,0,1,.21-.19l.35-.3L15,1.29l.42-.37.29-.26L16,.36l.21-.19L16.38,0h0V4.82h0l-.25.21-.7.62-.49.44-.61.54-.48.42h0V2.33S13.83,2.3,13.84,2.29Z"/><path class="a" d="M19.4,3.87V5.73a.059.059,0,0,0,.06.06h.79V3.64a.17.17,0,0,1,0-.07h.79a.13.13,0,0,1,0,.06v3H17c-.07,0-.07,0-.07-.07v-3h.81V5.78h.78V3.87h.8Z"/><path class="a" d="M17.78,15.24h.79V13.38c0-.05,0-.06.06-.06h.69v1.86c0,.05,0,.07.06.07h.79V13.09c0-.06,0-.06.07-.06H21c.05,0,.06,0,.06.06v3.05H16.95V13.07h.76a.053.053,0,0,1,.05.06v2.06A.471.471,0,0,0,17.78,15.24Z"/><path class="a" d="M20.64,17a1.45,1.45,0,0,1,.46,1,2.56,2.56,0,0,1-.52,1.81.81.81,0,0,1-.12.14l-.14-.11-.44-.37c-.06-.05-.06-.05,0-.11a1.93,1.93,0,0,0,.4-.78,1.34,1.34,0,0,0,0-.66.31.31,0,0,0-.06-.13.33.33,0,0,0-.58,0,1.82,1.82,0,0,0-.17.44c-.08.25-.13.49-.21.73a2.18,2.18,0,0,1-.22.43.93.93,0,0,1-.72.4,1.36,1.36,0,0,1-.45,0,1.13,1.13,0,0,1-.49-.24,1.07,1.07,0,0,1-.32-.44,1.94,1.94,0,0,1-.12-.39,2.44,2.44,0,0,1,0-.54,1.91,1.91,0,0,1,.1-.52,2.62,2.62,0,0,1,.19-.46,2.23,2.23,0,0,1,.2-.3h.05l.63.44h0s-.16.26-.23.4a1.6,1.6,0,0,0-.14.53.67.67,0,0,0,0,.2.46.46,0,0,0,.2.39.36.36,0,0,0,.37,0,.73.73,0,0,0,.19-.37c.06-.17.1-.35.15-.53a2.85,2.85,0,0,1,.25-.63,1,1,0,0,1,.47-.47,1.06,1.06,0,0,1,.36-.09,1.34,1.34,0,0,1,.74.13Z"/><path class="a" d="M11.44.07V.83a.059.059,0,0,1-.06.06H9.29S9.23.9,9.23,1v.76h1.9v.75c0,.06,0,.06-.06.06H9.23V4.15h-.9v-4h3.11Z"/><path class="a" d="M2.34,2.24A.48.48,0,0,0,2,1.81a.53.53,0,0,0-.73.4,1.79,1.79,0,0,0,0,.23V4.1a.059.059,0,0,1-.06.06H.37V1h.88v.42A1.08,1.08,0,0,1,2,1h.28a1.09,1.09,0,0,1,.5.16.92.92,0,0,1,.41.59,1.65,1.65,0,0,1,.05.44V4.18H2.4V2.34C2.4,2.28,2.33,2.27,2.34,2.24Z"/><path class="a" d="M21.05,8.39H17c-.05,0-.07,0-.07-.06V7.5h4.06c.06,0,.06,0,.06.06v.79a.07.07,0,0,1,0,.04Z"/><path class="a" d="M17,16.13h4c.05,0,.07,0,.07-.06v-3c0-.05,0-.06-.05-.06h-.69a.059.059,0,0,0-.06.06v.03c0-.07,0-.07.08-.07H21c.07,0,.07,0,.07.07v3c0,.07,0,.08-.07.08H17a.08.08,0,0,1,0-.05Z"/><path class="a" d="M11.44.07h-3c-.07,0-.07,0-.07.07v4c0,.07,0,.07.07.07h.83a.08.08,0,0,1-.07,0H8.39c-.07,0-.07,0-.07-.08V.14c0-.07,0-.08.07-.08h3Z"/><path class="a" d="M17,12.43h4c.05,0,.07,0,.07-.06v-.78s0-.06-.05-.06H21c.07,0,.07,0,.07.07v.76c0,.07,0,.08-.07.08H17a.08.08,0,0,1,0-.01Z"/><path class="a" d="M21.05,8.39V7.54H21c.07,0,.07,0,.07.07v.77S21.07,8.37,21.05,8.39Z"/><path class="a" d="M13.84,2.29V7.08h0V2.36A.17.17,0,0,1,13.84,2.29Z"/><path class="a" d="M16.38,4.87V0a.17.17,0,0,1,0,.07v4.7A.13.13,0,0,1,16.38,4.87Z"/><path class="a" d="M21.05,6.68V6.64A.028.028,0,0,1,21.05,6.68Z"/><path class="a" d="M17.78,5.78V3.72c0-.06,0-.07-.07-.07H17a.08.08,0,0,1,.07,0h.67c.07,0,.07,0,.07.08C17.79,4.37,17.78,5.08,17.78,5.78Z"/><path class="a" d="M17.78,15.24V13.18c0-.06,0-.07-.07-.07h0c.07,0,.07,0,.07.07C17.79,13.83,17.78,14.54,17.78,15.24Z"/><path class="a" d="M9.23,2.58h1.88c.05,0,.07,0,.07-.07V1.76a.13.13,0,0,1,0,.06v.69c0,.07,0,.07-.08.07Z"/><path class="a" d="M2.35,2.34V4.1c0,.05,0,.06.07.06h.83a.1.1,0,0,1-.07,0H2.42c-.07,0-.07,0-.07-.08Z"/><path class="a" d="M4.47,4.73H4.4S4.45,4.71,4.47,4.73Z"/><path class="a" d="M20.26,3.57v.07a.2.2,0,0,1,0-.07Z"/><path class="a" d="M4.1,4.15H5V4.08c0,.09,0,.09-.08.09H4.17a.1.1,0,0,1-.07-.02Z"/><path class="a" d="M6.12.07H4.1a.1.1,0,0,1,.07,0h2Z"/><path class="a" d="M6.58,4.15h0Z"/><path class="a" d="M21.05,10V9.94a.13.13,0,0,1,0,.06Z"/><path class="a" d="M19.4,3.87Z"/><path class="a" d="M5,2.86Z"/><path class="a" d="M1.28,1.45h0V1.11a1.61,1.61,0,0,0,0,.34Z"/><path class="a" d="M12.73,13.65v-.31a1.61,1.61,0,0,1,0,.31Z"/><path class="a" d="M12.74,12.92v-.29A1.38,1.38,0,0,1,12.74,12.92Z"/><path class="a" d="M21.13,1.66V1.37a1.41,1.41,0,0,1,0,.29Z"/><path class="a" d="M18.43,9h-.2a.45.45,0,0,1,.2,0Z"/><path class="a" d="M17.72,18.46a.67.67,0,0,1,0-.2Z"/><path class="a" d="M2.28,1h-.2a.67.67,0,0,1,.2,0Z"/><path class="a" d="M20.32,1.4a.45.45,0,0,1,0,.2Z"/><path class="a" d="M6.73,20Z"/><path class="a" d="M7.63,4.14l-.72-1-.27-.4a1.47,1.47,0,0,0,.48-.29,1.3,1.3,0,0,0,.4-.93A1.42,1.42,0,0,0,7.46,1,1.14,1.14,0,0,0,6.8.23,2,2,0,0,0,6.12.07h-2V4.15H5V2.86h.7c.09.14.18.28.28.42l.59.88h1S7.63,4.17,7.63,4.14Zm-1-2.63A.55.55,0,0,1,6.09,2H5V.88H6a.76.76,0,0,1,.21,0,.54.54,0,0,1,.39.63Z"/><path class="a" d="M21.06,11.59a.053.053,0,0,0-.06-.05H19.81v-.7l.72-.49.54-.35V9l-.21.14-.58.4-.65.44a1.59,1.59,0,0,0-.15-.29A1.2,1.2,0,0,0,19,9.17,1.43,1.43,0,0,0,18.43,9h-.46a1.16,1.16,0,0,0-.68.42,1.54,1.54,0,0,0-.24.48,2.26,2.26,0,0,0-.08.51v1.95h4.05Zm-2.16-.05H17.79v-.86a.86.86,0,0,1,0-.28.53.53,0,0,1,.44-.4.56.56,0,0,1,.63.36.81.81,0,0,1,.06.31v.87Z"/></g></svg>
