<?xml version="1.0" encoding="utf-8"?>
<!-- Generator: Adobe Illustrator 27.2.0, SVG Export Plug-In . SVG Version: 6.00 Build 0)  -->
<svg version="1.1" id="Layer_1" xmlns="http://www.w3.org/2000/svg" xmlns:xlink="http://www.w3.org/1999/xlink" x="0px" y="0px"
	 viewBox="0 0 362.1 277" xml:space="preserve">
<g>
	<g>
		<g>
			<path d="M322.8,245.5l-6.8-5.6c3.2-3.9,5.3-8,5.3-13c0-3.9-1.6-6.3-4.1-6.3h-0.1c-2.4,0-3.7,1.5-5.5,8.7
				c-2.2,8.7-4.6,14.4-13.3,14.4h-0.1c-7.9,0-13.1-6.3-13.1-15.2c0-6.3,2-11.7,5.5-16.1l7.2,5c-2.7,3.8-4.3,7.6-4.3,11.3
				c0,3.7,1.7,5.6,3.8,5.6h0.1c2.9,0,3.8-1.9,5.7-9.4c2.3-8.8,5.5-13.8,13-13.8h0.1c8.6,0,13.4,6.6,13.4,15.9
				C329.7,233.6,327.4,240.3,322.8,245.5z"/>
			<path d="M285.7,205v-32.7h8.5v23.2h8.8V175h8.5v20.5h9.1v-23.6h8.5v33H285.7z"/>
			<path d="M285.7,165.6v-19.8c0-5.5,1.6-9.8,4.4-12.7c2.4-2.4,5.8-3.7,9.9-3.7h0.1c7,0,11.4,3.8,13.5,9.3l15.5-10.6v11.2l-13.9,9.3
				v7.5h13.9v9.5H285.7z M306.8,146.4c0-4.7-2.5-7.3-6.1-7.3h-0.1c-4.1,0-6.2,2.9-6.2,7.5v9.5h12.5V146.4z"/>
			<path d="M285.7,122.5V113h43.4v9.5H285.7z"/>
			<path d="M285.7,104.3V71.5h8.5v23.2h8.8V74.3h8.5v20.5h9.1V71.2h8.5v33.1H285.7z"/>
			<path d="M322.9,67.9l-6.8-5.7c3.3-3.9,5.3-8.1,5.3-13.1c0-3.9-1.6-6.3-4.1-6.3h-0.1c-2.4,0-3.7,1.5-5.6,8.8
				c-2.3,8.8-4.7,14.5-13.4,14.5h-0.1c-7.9,0-13.2-6.4-13.2-15.3c0-6.4,2-11.8,5.6-16.3l7.3,5c-2.7,3.9-4.3,7.7-4.3,11.4
				c0,3.7,1.7,5.6,3.8,5.6h0.1c2.9,0,3.8-1.9,5.8-9.4c2.3-8.9,5.5-13.9,13.1-13.9h0.1c8.7,0,13.6,6.6,13.6,16.1
				C329.9,55.9,327.6,62.6,322.9,67.9z"/>
		</g>
		<path d="M278,196.8c-3.7,6.4-10.2,9.4-17.3,9.4c-11.1,0-20.6-7.3-20.6-23.1v-89c0-15.8,9.5-23.4,20.6-23.4
			c7.1,0,13.6,3.2,17.3,9.7V25.7c-5.6-1.2-11.4-1.8-17.3-1.8c-37.4,0-72.5,23.7-72.5,70.3v88.6c0,46.5,35.1,70.3,72.5,70.3
			c5.9,0,11.7-0.6,17.3-1.8V196.8z"/>
	</g>
	<g>
		<g>
			<path d="M36.2,36.9h10.3V42c2.4-3,5.4-5.8,10.6-5.8c7.8,0,12.3,5.1,12.3,13.4v23.4H59V52.9c0-4.9-2.3-7.4-6.2-7.4
				c-3.9,0-6.4,2.5-6.4,7.4v20.2H36.2V36.9z"/>
			<path d="M79.3,25.8h21.6c6,0,10.7,1.7,13.8,4.8c2.6,2.6,4,6.3,4,10.8v0.1c0,7.6-4.1,12.4-10.1,14.6l11.5,16.9H108L97.8,57.9h-8.2
				v15.1H79.3V25.8z M100.2,48.8c5.1,0,8-2.7,8-6.7V42c0-4.5-3.1-6.8-8.2-6.8H89.7v13.6H100.2z"/>
			<path d="M128.1,25.8h36v9.4h-25.6v10.1H161v9.4h-22.5v18.3h-10.4V25.8z"/>
		</g>
		<polygon  points="104.8,79.8 37,251.6 93.9,251.6 161.7,79.8 		"/>
	</g>
</g>
</svg>
