<svg xmlns="http://www.w3.org/2000/svg" width="21.53" height="20" viewBox="0 0 21.53 20"><defs><style>.a{fill:#00a9ce;}</style></defs><g transform="translate(-0.05)"><path class="a" d="M21.56,2a1.414,1.414,0,0,1-.13.43,2.34,2.34,0,0,1-.48.8l-.64-.54.05-.06a2,2,0,0,0,.42-.87,1.18,1.18,0,0,0,0-.59.56.56,0,0,0-.1-.17.33.33,0,0,0-.54,0,1.52,1.52,0,0,0-.2.47c-.07.25-.14.51-.23.77a2.33,2.33,0,0,1-.19.39.92.92,0,0,1-.6.39A1.26,1.26,0,0,1,18.13,3a1.19,1.19,0,0,1-.66-.73,2.07,2.07,0,0,1-.08-.89,2.41,2.41,0,0,1,.47-1.2V.13l.68.47V.66a2.42,2.42,0,0,0-.34.77,1,1,0,0,0,0,.51.34.34,0,0,0,.24.25.32.32,0,0,0,.4-.19A1.91,1.91,0,0,0,19,1.56c.07-.23.13-.46.2-.69a1.41,1.41,0,0,1,.3-.51A.94.94,0,0,1,20.14,0h.35a1.15,1.15,0,0,1,1,.79,1.87,1.87,0,0,1,.07.22Z"/><path class="a" d="M21.56,18.62a3,3,0,0,1-.07.32,2.51,2.51,0,0,1-.51.95v.05l-.63-.52c.1-.16.21-.31.3-.47a1.45,1.45,0,0,0,.16-1,.47.47,0,0,0-.09-.22.33.33,0,0,0-.55,0,2,2,0,0,0-.19.45c-.07.27-.15.54-.24.8a1.24,1.24,0,0,1-.35.55,1,1,0,0,1-.63.22,1.15,1.15,0,0,1-.82-.23,1.22,1.22,0,0,1-.46-.8,2.3,2.3,0,0,1,.46-1.89h0l.66.46c-.09.17-.18.32-.26.49a1.29,1.29,0,0,0-.12.7.63.63,0,0,0,.07.22.32.32,0,0,0,.57,0,1.43,1.43,0,0,0,.14-.34c.08-.26.15-.52.23-.77a1.74,1.74,0,0,1,.25-.49.93.93,0,0,1,.68-.4,1.27,1.27,0,0,1,.74.11,1.15,1.15,0,0,1,.61.72,2,2,0,0,1,.07.26Z"/><path class="a" d="M3.23,20l3.25-7.68H6.42a2.22,2.22,0,0,1-.76.18H5.33a4.55,4.55,0,0,1-1.72-.3,5.24,5.24,0,0,1-1.78-1.11A5.71,5.71,0,0,1,.23,8.31a5.56,5.56,0,0,1-.18-1q0-.285,0-.57V6.3a8.26,8.26,0,0,1,.08-1,2.832,2.832,0,0,1,.08-.4c.02-.13,0-.06.07-.06H4.35c.07,0,.07,0,.08.07V6.63a2.93,2.93,0,0,0,.08.83A1.6,1.6,0,0,0,5.78,8.71a2.36,2.36,0,0,0,.65.07,2.16,2.16,0,0,0,1.05-.3,1.62,1.62,0,0,0,.74-1.09,2.94,2.94,0,0,0,0-.51V4.94c0-.07,0-.07.06-.07h4.19c.05,0,.07,0,.08.07a6.983,6.983,0,0,0,.14.88V6.84a2.659,2.659,0,0,1-.07.71,9.88,9.88,0,0,1-.51,2c-.24.66-.49,1.31-.75,2s-.62,1.54-.93,2.31c-.61,1.53-1.23,3-1.84,4.57-.21.51-.42,1-.62,1.54A.09.09,0,0,1,8,20Z"/><path class="a" d="M14.32,7.09V2.36a.15.15,0,0,1,0-.12L16.82.08h0V4.8a.11.11,0,0,1,0,.09L15.17,6.34,14.39,7Z"/><path class="a" d="M7.3,2.7l1,1.45H7.23c-.27-.41-.54-.82-.82-1.23a.08.08,0,0,0-.08,0H5.66v1.3h-.9V.06H6.63a1.77,1.77,0,0,1,.9.2,1.15,1.15,0,0,1,.62.92,1.47,1.47,0,0,1-.09.8,1.24,1.24,0,0,1-.69.68ZM5.66,2.05H6.72a.56.56,0,0,0,.53-.5A.52.52,0,0,0,6.92,1,.57.57,0,0,0,6.67.89h-1Z"/><path class="a" d="M20.23,11.54h1.3v.9H17.45V10.51a1.73,1.73,0,0,1,.19-.81,1.13,1.13,0,0,1,.76-.62,1.6,1.6,0,0,1,.84,0,1.23,1.23,0,0,1,.81.76v.05l1.45-1v1a.08.08,0,0,1,0,.08l-1.22.81a.11.11,0,0,0,0,.09v.65Zm-.8,0V10.53a.55.55,0,0,0-.64-.57.49.49,0,0,0-.43.28,1,1,0,0,0-.09.41v.89Z"/><path class="a" d="M17.46,13.06h.79v2.18h.83V13.32h.8v1.92h.85V13h.8v3.1H17.46Z"/><path class="a" d="M17.46,3.6h.79V5.78h.82V3.86h.81V5.78h.85V3.57h.8v3.1H17.46Z"/><path class="a" d="M9.88,4.15H9V.07h3.11V.88H9.88v.87h1.95v.82H9.88Z"/><path class="a" d="M1.92,4.15H1V1h.88v.43h0A1.08,1.08,0,0,1,2.6,1a1.06,1.06,0,0,1,1,.27,1,1,0,0,1,.28.63V4.16H3V2.39a1.07,1.07,0,0,0,0-.25.49.49,0,0,0-.54-.37.51.51,0,0,0-.5.5,1.21,1.21,0,0,0,0,.19V4.15Z"/><path class="a" d="M21.53,8.39H17.46v-.9h4.07Z"/></g></svg>