<?xml version="1.0" encoding="utf-8"?>
<!-- Generator: Adobe Illustrator 24.2.0, SVG Export Plug-In . SVG Version: 6.00 Build 0)  -->
<svg version="1.1" id="Capa_1" xmlns="http://www.w3.org/2000/svg" xmlns:xlink="http://www.w3.org/1999/xlink" x="0px" y="0px"
	 height="23" viewBox="0 0 316 316" style="enable-background:new 0 0 316 316;" xml:space="preserve">
<style type="text/css">
	.st0{fill:#607d8b; fill-rule: evenodd}
</style>
<g>
	<path class="st0" d="M54.3,38.1h206.8c9.2,0,16.8,7.6,16.8,16.8v206.8c0,9.2-7.6,16.8-16.8,16.8H54.3c-9.2,0-16.8-7.6-16.8-16.8
		V54.5C37.9,45.3,45.1,38.1,54.3,38.1z M143.7,182.5c0-8.8,1-15.7,3-20.8c2-5.1,5.2-9.5,9.7-13.2c4.5-3.7,7.9-7.2,10.2-10.3c2.3-3.1,3.5-6.5,3.5-10.3
		c0-9.1-3.9-13.7-11.8-13.7c-3.6,0-6.5,1.3-8.8,4c-2.2,2.7-3.4,6.2-3.5,10.8h-30.6c0.1-12.1,3.9-21.4,11.4-28.2
		c7.5-6.7,18-10.1,31.5-10.1c13.4,0,23.9,3.1,31.2,9.3c7.4,6.2,11.1,15,11.1,26.5c0,5-1,9.6-3,13.7c-2,4.1-5.2,8.3-9.6,12.6
		l-10.4,9.7c-3,2.8-5,5.7-6.1,8.7c-1.1,3-1.8,6.8-1.9,11.3H143.7z M140,210c0-4.5,1.6-8.1,4.8-11c3.2-2.9,7.2-4.3,12.1-4.3
		c4.8,0,8.8,1.4,12.1,4.3c3.2,2.9,4.8,6.5,4.8,11c0,4.5-1.6,8.1-4.8,11c-3.2,2.9-7.3,4.3-12.1,4.3c-4.8,0-8.8-1.4-12.1-4.3
		C141.6,218.1,140,214.5,140,210z"/>
	<path class="st0" d="M239.7,27h1V7.7c0-4-3.2-7.6-7.6-7.6h-24.8c-4.4,0-7.6,3.2-7.6,7.6V27H239.7z"/>
	<path class="st0" d="M115.1,27V7.7c0-4-3.2-7.6-7.6-7.6H82.7c-4,0-7.6,3.2-7.6,7.6V27H115.1z"/>
	<path class="st0" d="M178.7,27V7.7c0-4-3.2-7.6-7.6-7.6h-24.8c-4,0-7.6,3.2-7.6,7.6V27H178.7z"/>
	<path class="st0" d="M78.6,289.6c-1.2,0-2.4,0-3.5-0.1v18.8c0,4,3.2,7.6,7.6,7.6h24.8c4,0,7.6-3.2,7.6-7.6v-18.7H78.6z"/>
	<path class="st0" d="M138.7,289.6v18.7c0,4,3.2,7.6,7.6,7.6h24.8c4,0,7.6-3.2,7.6-7.6v-18.7H138.7z"/>
	<path class="st0" d="M308.3,200.9H289v40h19.3c4,0,7.6-3.2,7.6-7.6v-24.8C315.9,204.1,312.7,200.9,308.3,200.9z"/>
	<path class="st0" d="M200.7,289.6v18.7c0,4,3.2,7.6,7.6,7.6h24.8c4,0,7.6-3.2,7.6-7.6v-18.7H200.7z"/>
	<path class="st0" d="M308.3,136.9H289v40h19.3c4,0,7.6-3.2,7.6-7.6v-24.8C315.9,140.5,312.7,136.9,308.3,136.9z"/>
	<path class="st0" d="M308.3,75.3H289v2.4c0,0.4,0,0.7,0,1.1v36.5h19.3c4,0,7.6-3.2,7.6-7.6V82.9C315.9,78.9,312.7,75.3,308.3,75.3z
		"/>
	<path class="st0" d="M26.3,200.9H7.7c-4,0-7.6,3.2-7.6,7.6v24.8c0,4,3.2,7.6,7.6,7.6h18.6V200.9z"/>
	<path class="st0" d="M26.3,136.9H7.7c-4,0-7.6,3.2-7.6,7.6v24.8c0,4,3.2,7.6,7.6,7.6h18.6V136.9z"/>
	<path class="st0" d="M26.3,75.3H7.7c-4,0-7.6,3.2-7.6,7.6v24.8c0,4,3.2,7.6,7.6,7.6h18.6V75.3z"/>
</g>
</svg>
